M48
; DRILL file {KiCad 9.0.2} date 2025-06-25T17:31:34+0200
; FORMAT={-:-/ absolute / metric / decimal}
; #@! TF.CreationDate,2025-06-25T17:31:34+02:00
; #@! TF.GenerationSoftware,Kicad,Pcbnew,9.0.2
; #@! TF.FileFunction,Plated,1,4,PTH
FMAT,2
METRIC
; #@! TA.AperFunction,Plated,PTH,ViaDrill
T1C0.250
; #@! TA.AperFunction,Plated,PTH,ComponentDrill
T2C0.500
; #@! TA.AperFunction,Plated,PTH,ComponentDrill
T3C0.600
; #@! TA.AperFunction,Plated,PTH,ComponentDrill
T4C1.000
; #@! TA.AperFunction,Plated,PTH,ComponentDrill
T5C3.200
%
G90
G05
T1
X96.5Y-111.2
X96.5Y-112.0
X96.5Y-112.8
X96.7Y-102.4
X96.7Y-103.2
X96.7Y-106.8
X96.7Y-107.6
X97.1Y-110.8
X97.1Y-111.6
X97.1Y-112.4
X97.1Y-113.2
X97.5Y-102.0
X97.5Y-102.8
X97.5Y-107.2
X97.5Y-108.0
X97.9Y-97.8
X98.3Y-104.0
X98.3Y-106.0
X98.5Y-89.0
X98.5Y-94.0
X98.5Y-116.0
X98.5Y-119.4
X98.5Y-121.0
X98.5Y-123.6
X98.5Y-124.4
X98.7Y-103.4
X98.7Y-106.6
X99.1Y-96.4
X99.9Y-95.4
X99.9Y-96.4
X100.7Y-95.4
X100.7Y-97.8
X100.9Y-100.8
X100.9Y-101.6
X100.9Y-108.4
X100.9Y-109.2
X101.5Y-101.2
X101.5Y-105.0
X101.5Y-108.8
X103.7Y-115.8
X103.7Y-117.4
X103.7Y-124.6
X103.9Y-105.0
X104.1Y-116.6
X104.1Y-118.2
X104.5Y-115.8
X104.5Y-117.4
X104.5Y-124.6
X104.9Y-116.6
X104.9Y-118.2
X104.9Y-122.2
X104.9Y-123.8
X105.1Y-102.6
X105.1Y-107.4
X105.3Y-123.0
X105.3Y-124.6
X105.5Y-115.8
X105.5Y-120.2
X106.1Y-124.6
X106.5Y-86.0
X106.5Y-88.4
X106.5Y-97.0
X106.5Y-110.6
X106.5Y-113.2
X106.7Y-101.2
X106.7Y-102.2
X106.7Y-108.0
X106.7Y-109.0
X107.3Y-95.2
X107.3Y-121.6
X107.7Y-101.2
X107.7Y-109.0
X108.1Y-86.0
X108.1Y-95.2
X108.1Y-121.6
X108.1Y-124.6
X108.7Y-120.2
X108.9Y-101.2
X108.9Y-109.0
X108.9Y-124.6
X109.3Y-110.6
X109.3Y-113.2
X109.3Y-123.8
X109.7Y-101.2
X109.7Y-109.0
X109.7Y-122.4
X109.7Y-124.6
X109.9Y-90.0
X110.1Y-123.8
X110.5Y-124.6
X110.7Y-91.6
X110.7Y-92.8
X110.7Y-94.0
X110.7Y-101.8
X110.7Y-108.4
X110.7Y-111.0
X110.9Y-90.0
X110.9Y-118.0
X110.9Y-122.4
X111.9Y-88.0
X111.9Y-89.0
X111.9Y-104.0
X111.9Y-108.6
X111.9Y-109.4
X112.7Y-113.4
X112.7Y-120.8
X112.9Y-112.4
X113.1Y-114.0
X113.3Y-100.2
X113.3Y-113.0
X113.5Y-97.6
X113.5Y-118.0
X113.9Y-88.8
X114.3Y-102.4
X114.3Y-104.0
X114.3Y-105.6
X114.3Y-107.2
X114.3Y-108.8
X115.5Y-88.0
X115.7Y-112.8
X115.9Y-102.4
X115.9Y-108.8
X115.9Y-119.73
X115.9Y-121.0
X115.9Y-122.27
X115.9Y-123.54
X116.3Y-88.8
X116.5Y-112.8
X117.1Y-89.8
X117.1Y-90.6
X117.3Y-100.2
X117.5Y-97.6
X117.5Y-102.4
X117.5Y-108.8
X117.7Y-96.8
X117.9Y-115.0
X118.1Y-86.0
X118.1Y-88.4
X118.3Y-95.4
X118.7Y-114.2
X118.7Y-115.0
X118.75Y-96.0
X119.1Y-102.4
X119.1Y-108.8
X119.1Y-119.73
X119.1Y-121.0
X119.1Y-122.27
X119.1Y-123.54
X119.3Y-98.2
X120.1Y-98.2
X120.7Y-102.4
X120.7Y-104.0
X120.7Y-105.6
X120.7Y-107.2
X120.7Y-108.8
X120.7Y-112.8
X120.9Y-98.2
X121.5Y-112.8
X121.7Y-96.0
X121.7Y-98.2
X122.3Y-98.8
X122.3Y-99.6
X122.5Y-88.8
X123.1Y-89.6
X123.3Y-124.4
X123.7Y-95.6
X123.9Y-90.4
X123.9Y-92.4
X124.5Y-124.4
X124.7Y-103.4
X124.7Y-104.2
X124.7Y-107.8
X124.7Y-108.6
X124.9Y-93.6
X124.9Y-94.8
X124.9Y-100.0
X124.9Y-100.8
X124.9Y-101.6
X124.9Y-102.4
X125.7Y-118.8
X126.1Y-94.2
X126.1Y-95.0
X126.9Y-90.4
X126.9Y-93.4
X127.7Y-90.4
X127.7Y-93.4
X131.9Y-95.8
X131.9Y-96.6
X131.9Y-97.4
X131.9Y-98.2
X131.9Y-99.4
X131.9Y-100.6
X131.9Y-101.8
X131.9Y-103.0
X131.9Y-104.2
X131.9Y-105.4
X131.9Y-106.6
X131.9Y-107.8
X131.9Y-109.0
X131.9Y-110.2
X131.9Y-111.4
X131.9Y-112.6
X131.9Y-113.8
X132.5Y-96.2
X132.5Y-97.0
X132.5Y-97.8
X133.1Y-95.8
X133.1Y-96.6
X133.1Y-97.4
X133.1Y-98.2
X133.1Y-99.4
X133.1Y-100.6
X133.1Y-101.8
X133.1Y-103.0
X133.1Y-104.2
X133.1Y-105.4
X133.1Y-106.6
X133.1Y-107.8
X133.1Y-109.0
X133.1Y-110.2
X133.1Y-111.4
X133.1Y-112.6
X133.1Y-113.8
X139.3Y-120.4
X139.3Y-121.6
X139.7Y-88.4
X139.7Y-89.6
X139.7Y-121.0
X140.1Y-120.4
X140.1Y-121.6
X140.5Y-121.0
X140.9Y-88.4
X140.9Y-89.6
X140.9Y-120.4
X140.9Y-121.6
X141.3Y-121.0
X141.7Y-120.4
X141.7Y-121.6
X142.1Y-88.4
X142.1Y-89.6
X142.1Y-121.0
X142.5Y-120.4
X142.5Y-121.6
X142.9Y-94.2
X142.9Y-121.0
X143.3Y-88.4
X143.3Y-89.6
X143.3Y-120.4
X143.3Y-121.6
X143.5Y-109.8
X143.5Y-111.0
X143.5Y-112.2
X143.5Y-113.4
X143.5Y-114.6
X143.5Y-115.8
X143.5Y-117.0
X143.7Y-121.0
X144.1Y-120.4
X144.1Y-121.6
X144.5Y-88.4
X144.5Y-89.6
X145.3Y-120.4
X145.3Y-121.6
X145.7Y-88.4
X145.7Y-89.6
X146.5Y-120.4
X146.5Y-121.6
X146.9Y-88.4
X146.9Y-89.6
X148.1Y-88.4
X148.1Y-89.6
X148.1Y-114.0
X148.1Y-116.6
X148.9Y-120.4
X148.9Y-121.6
X149.1Y-124.0
X149.3Y-88.4
X149.3Y-89.6
X149.3Y-114.0
X149.9Y-124.0
X150.1Y-120.4
X150.1Y-121.6
X150.5Y-88.4
X150.5Y-89.6
X150.5Y-114.0
X150.5Y-116.6
X150.9Y-124.6
X151.3Y-120.4
X151.3Y-121.6
X151.7Y-88.4
X151.7Y-89.6
X151.7Y-124.0
X151.7Y-124.6
X152.5Y-120.4
X152.5Y-121.6
X152.5Y-124.0
X152.9Y-88.4
X152.9Y-89.6
X152.9Y-126.2
X153.7Y-120.4
X153.7Y-121.6
X154.1Y-88.4
X154.1Y-89.6
X154.9Y-120.4
X154.9Y-121.6
X155.3Y-88.4
X155.3Y-89.6
X155.7Y-89.0
X156.1Y-88.4
X156.1Y-89.6
X156.1Y-120.4
X156.1Y-121.6
X156.5Y-89.0
X156.9Y-88.4
X156.9Y-89.6
X157.3Y-89.0
X157.3Y-120.4
X157.3Y-121.6
X157.7Y-88.4
X157.7Y-89.6
X163.9Y-96.2
X163.9Y-97.4
X163.9Y-98.6
X163.9Y-99.8
X163.9Y-101.0
X163.9Y-102.2
X163.9Y-103.4
X163.9Y-104.6
X163.9Y-105.8
X163.9Y-107.0
X163.9Y-108.2
X163.9Y-109.4
X163.9Y-110.6
X163.9Y-111.8
X163.9Y-112.6
X163.9Y-113.4
X163.9Y-114.2
X164.5Y-112.2
X164.5Y-113.0
X164.5Y-113.8
X165.1Y-96.2
X165.1Y-97.4
X165.1Y-98.6
X165.1Y-99.8
X165.1Y-101.0
X165.1Y-102.2
X165.1Y-103.4
X165.1Y-104.6
X165.1Y-105.8
X165.1Y-107.0
X165.1Y-108.2
X165.1Y-109.4
X165.1Y-110.6
X165.1Y-111.8
X165.1Y-112.6
X165.1Y-113.4
X165.1Y-114.2
X171.1Y-88.8
X171.1Y-90.6
X171.1Y-92.4
X171.1Y-94.8
X171.1Y-96.6
X171.1Y-98.4
X171.1Y-111.6
X171.1Y-113.4
X171.1Y-115.2
X171.1Y-117.6
X171.1Y-119.4
X171.1Y-121.2
X172.5Y-88.8
X172.5Y-92.4
X172.5Y-94.8
X172.5Y-98.4
X172.5Y-111.6
X172.5Y-115.2
X172.5Y-117.6
X172.5Y-121.2
X173.1Y-101.2
X173.9Y-101.2
X175.9Y-90.6
X175.9Y-96.6
X175.9Y-113.4
X175.9Y-119.4
X177.3Y-103.6
X177.3Y-106.4
T2
X102.5Y-112.0
X103.9Y-98.2
X103.9Y-123.0
T4
X179.8Y-87.22
X179.8Y-89.76
X179.8Y-92.3
X179.8Y-94.84
X179.8Y-97.38
X179.8Y-99.92
X179.8Y-110.08
X179.8Y-112.62
X179.8Y-115.16
X179.8Y-117.7
X179.8Y-120.24
X179.8Y-122.78
X182.34Y-87.22
X182.34Y-89.76
X182.34Y-92.3
X182.34Y-94.84
X182.34Y-97.38
X182.34Y-99.92
X182.34Y-110.08
X182.34Y-112.62
X182.34Y-115.16
X182.34Y-117.7
X182.34Y-120.24
X182.34Y-122.78
T5
X96.5Y-79.0
X96.5Y-131.0
X188.5Y-79.0
X188.5Y-131.0
T3
X95.5Y-100.68G85X94.7Y-100.68
G05
X95.5Y-109.32G85X94.7Y-109.32
G05
X99.8Y-100.68G85X98.7Y-100.68
G05
X99.8Y-109.32G85X98.7Y-109.32
G05
M30
