G04 #@! TF.GenerationSoftware,KiCad,Pcbnew,9.0.2*
G04 #@! TF.CreationDate,2025-06-25T17:31:32+02:00*
G04 #@! TF.ProjectId,nuku-carrier-template-basic,6e756b75-2d63-4617-9272-6965722d7465,0*
G04 #@! TF.SameCoordinates,Original*
G04 #@! TF.FileFunction,Soldermask,Bot*
G04 #@! TF.FilePolarity,Negative*
%FSLAX46Y46*%
G04 Gerber Fmt 4.6, Leading zero omitted, Abs format (unit mm)*
G04 Created by KiCad (PCBNEW 9.0.2) date 2025-06-25 17:31:32*
%MOMM*%
%LPD*%
G01*
G04 APERTURE LIST*
%ADD10C,0.990600*%
%ADD11O,1.800000X1.000000*%
%ADD12O,2.100000X1.000000*%
%ADD13C,0.650000*%
%ADD14C,1.000000*%
%ADD15C,3.600000*%
%ADD16C,6.400000*%
%ADD17R,1.700000X1.700000*%
%ADD18C,1.700000*%
G04 APERTURE END LIST*
D10*
X116484000Y-124810000D03*
X118516000Y-124810000D03*
X117500000Y-117190000D03*
D11*
X95100000Y-109320000D03*
D12*
X99250000Y-109320000D03*
D11*
X95100000Y-100680000D03*
D12*
X99250000Y-100680000D03*
D13*
X98750000Y-107890000D03*
X98750000Y-102110000D03*
D14*
X103900000Y-123000000D03*
X102500000Y-112000000D03*
X103900000Y-98200000D03*
D15*
X96500000Y-131000000D03*
D16*
X96500000Y-131000000D03*
D15*
X188500000Y-79000000D03*
D16*
X188500000Y-79000000D03*
D15*
X96500000Y-79000000D03*
D16*
X96500000Y-79000000D03*
D17*
X179800000Y-110080000D03*
D18*
X179800000Y-112620000D03*
X179800000Y-115160000D03*
X179800000Y-117700000D03*
X179800000Y-120240000D03*
X179800000Y-122780000D03*
X182340000Y-110080000D03*
X182340000Y-112620000D03*
X182340000Y-115160000D03*
X182340000Y-117700000D03*
X182340000Y-120240000D03*
X182340000Y-122780000D03*
D17*
X179800000Y-87220000D03*
D18*
X179800000Y-89760000D03*
X179800000Y-92300000D03*
X179800000Y-94840000D03*
X179800000Y-97380000D03*
X179800000Y-99920000D03*
X182340000Y-87220000D03*
X182340000Y-89760000D03*
X182340000Y-92300000D03*
X182340000Y-94840000D03*
X182340000Y-97380000D03*
X182340000Y-99920000D03*
D15*
X188500000Y-131000000D03*
D16*
X188500000Y-131000000D03*
M02*
